<svg width="142" height="57" viewBox="0 0 142 57" fill="none" xmlns="http://www.w3.org/2000/svg">
<path d="M137.854 11.969C138.951 11.9776 140.001 12.4127 140.778 13.1805C141.554 13.9483 141.993 14.9871 142.002 16.0728C142.001 16.8833 141.758 17.6753 141.302 18.3487C140.846 19.0222 140.199 19.547 139.442 19.8567C138.685 20.1665 137.852 20.2473 137.049 20.089C136.245 19.9306 135.507 19.5403 134.928 18.9672C134.349 18.3942 133.954 17.6641 133.794 16.8693C133.634 16.0745 133.716 15.2506 134.029 14.5017C134.342 13.7528 134.872 13.1125 135.553 12.6617C136.234 12.2109 137.035 11.9699 137.854 11.969ZM137.854 12.6263C137.402 12.6207 136.954 12.7069 136.537 12.8795C136.12 13.0521 135.744 13.3075 135.431 13.6298C134.789 14.2871 134.43 15.1654 134.43 16.0794C134.43 16.9934 134.789 17.8717 135.431 18.529C136.074 19.1632 136.945 19.5193 137.854 19.5193C138.762 19.5193 139.633 19.1632 140.277 18.529C140.927 17.8757 141.291 16.9959 141.291 16.0794C141.291 15.1629 140.927 14.2831 140.277 13.6298C139.964 13.3075 139.587 13.0521 139.17 12.8795C138.754 12.7069 138.306 12.6207 137.854 12.6263ZM136.182 13.7591H138.175C139.11 13.7591 139.794 14.3332 139.794 15.2052C139.8 15.4973 139.705 15.7827 139.526 16.0147C139.346 16.2468 139.093 16.4117 138.806 16.4826L139.951 18.3713H138.897L137.936 16.6776H137.067V18.3581H136.182V13.7591ZM137.067 14.4624V16.0268H137.989C138.476 16.0268 138.857 15.7267 138.857 15.2446C138.856 15.1357 138.832 15.0283 138.786 14.9289C138.741 14.8296 138.676 14.7405 138.594 14.6672C138.513 14.5939 138.417 14.5378 138.313 14.5026C138.209 14.4674 138.099 14.4537 137.989 14.4624H137.067Z" fill="black"/>
<path d="M70.6988 12.0587V18.323C69.8701 18.1406 69.0249 18.0415 68.1761 18.0272C64.1893 18.0272 60.8449 20.2708 60.8449 24.3484V41.5395H54.3929V12.5912H60.5525V15.1306C62.9579 13.0031 65.7154 11.9404 68.7653 11.9404C69.2924 11.9404 69.9369 11.9996 70.6988 12.0587Z" fill="black"/>
<path d="M77.2105 8.22005C75.1573 8.22005 73.5737 6.5658 73.5737 4.49525C73.5737 2.5452 75.2747 0.831787 77.2105 0.831787C79.1463 0.831787 80.7875 2.5452 80.7875 4.49525C80.7875 6.5658 79.1463 8.22005 77.2105 8.22005ZM80.4354 41.5351H73.9835V12.5912H80.4354V41.5351Z" fill="black"/>
<path d="M111.869 33.9891V41.5351H108.361C108.072 41.535 107.788 41.4742 107.525 41.3567C107.263 41.2392 107.029 41.0677 106.839 40.8537L105.922 39.8217C105.599 39.4578 105.421 38.9909 105.419 38.507V23.9913C105.419 19.7976 102.721 17.7292 99.0248 17.7292C95.3282 17.7292 92.2805 20.3278 92.2805 23.8642V41.5263H85.8175V12.5912H91.9771V15.1306C94.3824 13.0031 97.3149 11.9404 100.717 11.9404C104.941 11.9404 108.048 13.4172 110.101 16.3708C112.564 13.4172 115.791 11.9404 119.847 11.9404C127.12 11.9404 131.462 15.6039 131.462 22.1595V41.5351H127.951C127.663 41.535 127.378 41.4742 127.116 41.3567C126.854 41.2392 126.62 41.0677 126.429 40.8537L125.512 39.8217C125.19 39.4579 125.011 38.991 125.01 38.507V23.9913C125.01 19.7976 122.312 17.7292 118.615 17.7292C114.919 17.7292 111.871 20.3278 111.871 23.8642L111.869 33.9891Z" fill="black"/>
<path d="M42.8402 12.5912V4.9707H36.3882V12.5912H34.3262L30.2375 18.2025H36.3882V41.5373H42.8402V18.2025H48.9975V12.5912H42.8402Z" fill="black"/>
<path d="M23.7723 12.5891C23.3613 12.5699 22.9543 12.6771 22.6073 12.8958L20.9683 13.9256C20.62 14.1467 20.319 14.4334 20.0823 14.7692L15.0236 21.7149L11.1542 27.0282L0.587036 41.5374H8.31916L15.0169 32.3349L18.8863 27.0216L29.4025 12.5825L23.7723 12.5891Z" fill="black"/>
<path d="M12.554 18.3231L8.6846 23.6364L1.26256 13.4458C1.20295 13.3648 1.16712 13.2691 1.15904 13.1692C1.15096 13.0694 1.17094 12.9693 1.21678 12.8799C1.26262 12.7906 1.33252 12.7156 1.41878 12.6631C1.50503 12.6106 1.60427 12.5827 1.70554 12.5825H6.25932C6.67035 12.5634 7.07731 12.6705 7.42434 12.8893L9.06334 13.9191C9.41164 14.1402 9.71265 14.4268 9.94929 14.7626L12.554 18.3231ZM39.4558 55.2687L21.3492 30.409L18.8863 27.026L15.0169 21.7127L11.1475 27.026L15.0169 32.3459L17.4799 35.7289L30.7691 53.9607C31.0058 54.2965 31.3068 54.5831 31.655 54.8042L33.294 55.834C33.6411 56.0528 34.048 56.1599 34.4591 56.1408H39.0151C39.1176 56.1414 39.2183 56.1136 39.3058 56.0605C39.3932 56.0074 39.4638 55.9312 39.5097 55.8404C39.5556 55.7497 39.5748 55.648 39.5653 55.547C39.5558 55.4459 39.5179 55.3496 39.4558 55.2687Z" fill="url(#paint0_linear_1484_453)"/>
<defs>
<linearGradient id="paint0_linear_1484_453" x1="1.15403" y1="34.3616" x2="39.5621" y2="34.3616" gradientUnits="userSpaceOnUse">
<stop stop-color="#4A3CD6"/>
<stop offset="0.1" stop-color="#503AD3"/>
<stop offset="0.23" stop-color="#6036C9"/>
<stop offset="0.37" stop-color="#7A2FBA"/>
<stop offset="0.53" stop-color="#A024A4"/>
<stop offset="0.69" stop-color="#CF1788"/>
<stop offset="0.84" stop-color="#FF0A6C"/>
<stop offset="1" stop-color="#FF609A"/>
</linearGradient>
</defs>
</svg>
